<svg xmlns="http://www.w3.org/2000/svg" viewBox="0 0 281.19 353.72"><defs><style>.a{fill:#333352;}.b{fill:#494971;}.c{fill:#27283e;}.d{fill:#9999be;}.e{fill:#d2cdec;}.f{fill:#bdb8e3;}.g{fill:#413f68;}.h{fill:#cecae6;}.i{fill:#fefefe;}.j{fill:#fec200;}.k{fill:#9898be;}.l{fill:#e8e7f3;}.m{fill:#f6f5fa;}.n{fill:#d2d1e9;}.o{fill:#1d1d36;}.p{fill:#343454;}.q{fill:#b31801;}.r{fill:#e42b07;}</style></defs><rect class="a" x="66.85" y="304.71" width="27.38" height="49.01"/><rect class="b" x="73.18" y="319.92" width="9.63" height="26.54" rx="4.82"/><rect class="c" x="66.85" y="304.71" width="27.38" height="7.27"/><rect class="a" x="126.9" y="304.71" width="27.38" height="49.01"/><rect class="b" x="133.24" y="319.92" width="9.63" height="26.54" rx="4.82"/><rect class="c" x="126.9" y="304.71" width="27.38" height="7.27"/><rect class="a" x="187.07" y="304.71" width="27.38" height="49.01"/><rect class="b" x="193.41" y="319.92" width="9.63" height="26.54" rx="4.82"/><rect class="c" x="187.07" y="304.71" width="27.38" height="7.27"/><path class="d" d="M42.92,27H238.27a15.9,15.9,0,0,1,15.9,15.9V286.19a18.52,18.52,0,0,1-18.52,18.52H45.54A18.52,18.52,0,0,1,27,286.19V42.92A15.9,15.9,0,0,1,42.92,27Z"/><path class="e" d="M237.8,62.21a19,19,0,0,1-19-19V35.13h-156V43.2a19,19,0,0,1-19,19H35.83V287.38a8.71,8.71,0,0,0,8.71,8.71H236.87a8.71,8.71,0,0,0,8.71-8.71V62.21Z"/><path class="f" d="M42,260H239a0,0,0,0,1,0,0v24.52a5.45,5.45,0,0,1-5.45,5.45H47.45A5.45,5.45,0,0,1,42,284.55V260a0,0,0,0,1,0,0Z"/><polygon class="g" points="11.96 143.47 0 155.43 0 176.1 12.33 188.43 27.02 188.43 27.02 143.47 11.96 143.47"/><circle class="g" cx="14.07" cy="165.75" r="7.64"/><circle class="h" cx="14.07" cy="165.75" r="5.87"/><rect class="g" x="10.85" y="164.95" width="6.44" height="1.59" rx="0.68" transform="translate(-113.08 58.5) rotate(-45)"/><rect class="g" x="10.85" y="164.95" width="6.44" height="1.59" rx="0.68" transform="translate(121.32 38.6) rotate(45)"/><polygon class="g" points="269.23 188.43 281.19 176.47 281.19 155.8 268.86 143.47 254.17 143.47 254.17 188.43 269.23 188.43"/><circle class="g" cx="267.12" cy="166.15" r="7.64"/><circle class="h" cx="267.12" cy="166.15" r="5.87"/><rect class="g" x="263.9" y="165.35" width="6.44" height="1.59" rx="0.68" transform="translate(573.49 94.75) rotate(135)"/><rect class="g" x="263.9" y="165.35" width="6.44" height="1.59" rx="0.68" transform="translate(338.52 472.51) rotate(-135)"/><polygon class="g" points="165.36 11.96 153.4 0 132.73 0 120.4 12.33 120.4 27.02 165.36 27.02 165.36 11.96"/><circle class="g" cx="143.08" cy="14.07" r="7.64"/><circle class="h" cx="143.08" cy="14.07" r="5.87"/><rect class="g" x="139.86" y="13.27" width="6.44" height="1.59" rx="0.68" transform="translate(51.86 -97.05) rotate(45)"/><rect class="g" x="139.86" y="13.27" width="6.44" height="1.59" rx="0.68" transform="translate(254.2 -77.15) rotate(135)"/><circle class="g" cx="42.57" cy="42.25" r="9.32"/><circle class="h" cx="42.57" cy="42.25" r="7.16"/><rect class="g" x="38.64" y="41.28" width="7.86" height="1.94" rx="0.85" transform="translate(-17.41 42.48) rotate(-45)"/><rect class="g" x="38.64" y="41.28" width="7.86" height="1.94" rx="0.85" transform="translate(42.34 -17.73) rotate(45)"/><circle class="g" cx="238.51" cy="42.25" r="9.32"/><circle class="h" cx="238.51" cy="42.25" r="7.16"/><rect class="g" x="234.58" y="41.28" width="7.86" height="1.94" rx="0.85" transform="translate(39.98 181.03) rotate(-45)"/><rect class="g" x="234.58" y="41.28" width="7.86" height="1.94" rx="0.85" transform="translate(99.73 -156.28) rotate(45)"/><path class="i" d="M140.7,235.83A24.21,24.21,0,1,0,164.91,260,24.21,24.21,0,0,0,140.7,235.83Zm0,46.46A22.26,22.26,0,1,1,163,260,22.25,22.25,0,0,1,140.7,282.29Z"/><circle class="i" cx="140.7" cy="260.04" r="19.89"/><path class="j" d="M150.16,257.9h-6.93l2-12.41a.2.2,0,0,0-.36-.16l-13.82,16.51a.37.37,0,0,0,.28.61h6.93l-2,12.4a.21.21,0,0,0,.36.17l13.82-16.51A.37.37,0,0,0,150.16,257.9Z"/><rect class="k" x="53.66" y="64.52" width="174.08" height="163.12" rx="2.7"/><rect class="l" x="55.77" y="67.32" width="169.86" height="157.51" rx="1.82"/><polygon class="m" points="133.46 73.27 62.63 73.27 62.63 144.93 133.46 73.27"/><polygon class="n" points="182.03 218.4 219.26 218.4 219.26 181.55 182.03 218.4"/><path d="M117.63,146.09h0c.25-.36.62-.81.91-1.17l3-3.55h2.25l-4,4.23,4.53,6.06h-2.28l-3.55-4.93-1,1.06v3.87h-1.85V136.57h1.85Z"/><path d="M128.15,151.66l-3.63-14.33h2l1.7,7.25c.43,1.79.81,3.57,1.06,4.95h.05c.23-1.42.68-3.12,1.17-5l1.91-7.23h1.93L136,144.6c.4,1.7.78,3.4,1,4.91h.05c.29-1.57.7-3.17,1.14-4.95l1.9-7.23H142L138,151.66H136l-1.8-7.46a42,42,0,0,1-.94-4.68h0a43.73,43.73,0,0,1-1.11,4.68l-2,7.46Z"/><path d="M147.77,145.22v1.38h-5.25v-1.38Z"/><path d="M150,136.57h1.87V143h0a3.38,3.38,0,0,1,1.33-1.32,3.89,3.89,0,0,1,1.92-.53c1.38,0,3.59.85,3.59,4.4v6.12h-1.87v-5.91c0-1.66-.62-3.06-2.38-3.06a2.69,2.69,0,0,0-2.51,1.87,2.17,2.17,0,0,0-.13.89v6.21H150Z"/><rect class="o" x="66.02" y="92.93" width="22.39" height="33.13" rx="3.42"/><rect class="p" x="66.02" y="97.16" width="22.39" height="24.25"/><rect class="o" x="91.42" y="92.93" width="22.39" height="33.13" rx="3.42"/><rect class="p" x="91.42" y="97.16" width="22.39" height="24.25"/><rect class="o" x="116.81" y="92.93" width="22.39" height="33.13" rx="3.42"/><rect class="p" x="116.81" y="97.16" width="22.39" height="24.25"/><rect class="o" x="142.2" y="92.93" width="22.39" height="33.13" rx="3.42"/><rect class="p" x="142.2" y="97.16" width="22.39" height="24.25"/><rect class="o" x="167.6" y="92.93" width="22.39" height="33.13" rx="3.42"/><rect class="p" x="167.6" y="97.16" width="22.39" height="24.25"/><rect class="q" x="192.99" y="92.93" width="22.39" height="33.13" rx="3.42"/><rect class="r" x="192.99" y="97.16" width="22.39" height="24.25"/><rect class="o" x="66.02" y="160.68" width="22.39" height="33.13" rx="3.42"/><rect class="p" x="66.02" y="164.9" width="22.39" height="24.25"/><rect class="o" x="91.42" y="160.68" width="22.39" height="33.13" rx="3.42"/><rect class="p" x="91.42" y="164.9" width="22.39" height="24.25"/><rect class="o" x="116.81" y="160.68" width="22.39" height="33.13" rx="3.42"/><rect class="p" x="116.81" y="164.9" width="22.39" height="24.25"/><rect class="o" x="142.2" y="160.68" width="22.39" height="33.13" rx="3.42"/><rect class="p" x="142.2" y="164.9" width="22.39" height="24.25"/><rect class="o" x="167.6" y="160.68" width="22.39" height="33.13" rx="3.42"/><rect class="p" x="167.6" y="164.9" width="22.39" height="24.25"/><rect class="q" x="192.99" y="160.68" width="22.39" height="33.13" rx="3.42"/><rect class="r" x="192.99" y="164.9" width="22.39" height="24.25"/></svg>